<?xml version="1.0" encoding="utf-8"?>
<!-- Generator: Adobe Illustrator 22.1.0, SVG Export Plug-In . SVG Version: 6.00 Build 0)  -->
<svg version="1.1" id="Layer_1" xmlns="http://www.w3.org/2000/svg" xmlns:xlink="http://www.w3.org/1999/xlink" x="0px" y="0px"
	 viewBox="0 0 404 298" style="enable-background:new 0 0 404 298;" xml:space="preserve">
<style type="text/css">
	.st0{fill:#FFFFFF;}
	.st1{fill:#F49759;}
	.st2{fill:none;stroke:#000000;stroke-miterlimit:10;}
	.st3{font-family:'MyriadPro-Regular';}
	.st4{font-size:31.2632px;}
	.st5{font-size:33.5774px;}
	.st6{font-size:36.5141px;}
</style>
<g>
	<rect x="1.5" y="0.5" class="st0" width="402" height="296"/>
	<path d="M403,1v295H2V1H403 M404,0H1v297h403V0L404,0z"/>
</g>
<g>
	<rect x="1.5" y="0.5" class="st1" width="402" height="150.1"/>
	<path d="M403,1v149.1H2V1H403 M404,0H1v151.1h403V0L404,0z"/>
</g>
<g>
	<line class="st2" x1="102.7" y1="1.3" x2="104.1" y2="295.7"/>
</g>
<line class="st2" x1="202.5" y1="1.3" x2="203.8" y2="295.7"/>
<line class="st2" x1="307.6" y1="2.6" x2="308.9" y2="297"/>
<text transform="matrix(0.5105 0 0 1 14.314 89.2109)" class="st3 st4">FILE NAME</text>
<text transform="matrix(0.5105 0 0 1 111.6685 90.6973)" class="st3 st4">FIELD LABEL</text>
<text transform="matrix(0.2858 0 0 1 207.3696 92.666)" class="st3 st4">VALIDATION PERFORMED</text>
<text transform="matrix(0.3348 0 0 1 316.0845 92.3965)" class="st3 st4">VALIDATION LEFT</text>
<text transform="matrix(0.5105 0 0 1 9.9478 228.4072)" class="st3 st4">Contact.html</text>
<text transform="matrix(0.5105 0 0 1 115.1343 228.0742)" class="st3 st4">Phoneinput</text>
<text transform="matrix(0.4557 0 0 1 209.8145 191.313)"><tspan x="0" y="0" class="st3 st5">Confirms input</tspan><tspan x="0" y="40.3" class="st3 st5"> matches set</tspan><tspan x="0" y="80.6" class="st3 st5"> standards</tspan></text>
<text transform="matrix(0.4252 0 0 1 313 193.5625)"><tspan x="0" y="0" class="st3 st6">Verifies that </tspan><tspan x="0" y="43.8" class="st3 st6">the entered </tspan><tspan x="0" y="87.6" class="st3 st6">data matches</tspan></text>
</svg>
